<svg viewBox="342.8 199.878 1028.4 924.167" xmlns="http://www.w3.org/2000/svg" overflow="visible">
    <g id="Master/Stickers/Vase Plant 4" stroke="none" stroke-width="1" fill="none" fill-rule="evenodd">
        <g id="plant" transform="translate(360.000000, 220.000000)">
            <path d="M491,687 L502.812688,687 C502.812688,687 500.633553,617.615501 548.448126,546.953431 C596.262699,476.291361 633,475 633,475 C605.907099,475.937671 574.212333,499.922148 537.915703,546.953431 C503.127308,592.030421 491.916298,669.587343 491,687 Z" id="Fill-5" fill="#090E2B"/>
            <path d="M418.473247,659 L407.458709,656.038867 C407.458709,656.038867 430.298251,527.007368 376.828034,434.493434 C323.357817,341.979499 92,239.066784 92,239.066784 C100.831966,236.217139 319.777838,324.930713 387.573014,434.493434 C426.128291,496.802012 429.594292,622.92428 418.473247,659 Z" id="Fill-12" fill="#090E2B"/>
            <path d="M581.911051,504.580035 C581.911051,504.580035 519.50662,431.959218 578.064766,385.83278 C578.064766,385.83278 620.832746,360.002314 655.712725,362.098585 C655.712725,362.098585 606.291633,444.760032 622.28006,452.981257 C638.265655,461.202481 670.690015,356.914411 670.690015,356.914411 C670.690015,356.914411 768.025408,347.498143 799.336668,362.51671 C799.336668,362.51671 716.128871,430.436455 733.649581,434.482089 C751.175956,438.524897 841.051027,371.856699 841.051027,371.856699 C841.051027,371.856699 931.642674,387.236887 926.813574,442.361469 C921.981642,497.483225 890.769513,514.507658 877.049771,513.038573 C863.327197,511.575139 783.073506,481.01535 781.325967,492.228422 C779.578427,503.441494 827.889252,540.083859 861.715609,541.801559 C861.715609,541.801559 797.846869,612.057714 755.401773,591.781519 C712.953844,571.505323 709.328479,539.363443 682.868977,527.308472 C656.409475,515.250676 633.82175,515.281753 644.748828,527.579688 C655.67024,539.871972 703.556217,551.822412 718.689285,578.520203 C733.822353,605.217994 747.400478,623.225584 703.482577,616.634478 C659.564676,610.043373 588.178968,577.989072 585.043594,541.284554 L581.911051,504.580035 Z" id="Fill-1" fill="#017C7F"/>
            <path d="M470.469333,669 L481.088055,669 C481.088055,669 461.161943,543.173582 491.273969,434.95701 C521.385994,326.740438 567,289 567,289 C532.164103,305.998653 502.178783,360.924981 477.04404,453.778985 C464.123746,501.50977 461.068595,638.551592 470.469333,669 Z" id="Fill-19" fill="#090E2B"/>
            <path d="M363.796064,413.05845 C363.796064,413.05845 462.97926,357.468575 416.692825,282.025173 C416.692825,282.025173 379.665375,235.704997 339.994927,223.792881 C339.994927,223.792881 361.150236,336.292423 339.994927,338.940504 C318.833958,341.588585 325.447115,211.880765 325.447115,211.880765 C325.447115,211.880765 220.977921,161.587052 179.983143,165.554925 C179.983143,165.554925 244.779058,275.409219 223.62375,272.76397 C202.462781,270.115889 129.729381,158.936139 129.729381,158.936139 C129.729381,158.936139 22.6171882,139.085444 5.42354765,202.613898 C-11.7672631,266.145183 16.0040318,297.910826 31.8705135,301.8787 C47.7426546,305.849405 149.56602,304.529613 146.920191,317.764353 C144.277193,330.996261 75.5111198,352.175245 37.1621704,340.263129 C37.1621704,340.263129 79.4784476,444.82126 135.021038,439.527931 C190.560798,434.234601 207.751608,399.820877 242.13606,397.175628 C276.517681,394.527547 301.643148,403.794414 284.452337,413.05845 C267.261526,422.322485 209.075938,416.091706 181.304643,439.72335 C153.533348,463.352163 131.05371,477.909528 182.628972,488.499019 C234.201404,499.085679 326.768614,492.469725 345.283754,452.765503 L363.796064,413.05845 Z" id="Fill-7" fill="#009BA0"/>
            <path d="M521.852301,336.625133 C521.852301,336.625133 391.262481,263.35179 452.203078,163.913238 C452.203078,163.913238 500.955556,102.851647 553.19318,87.147991 C553.19318,87.147991 525.334621,235.439214 553.19318,238.928286 C581.051738,242.417358 572.345939,71.4471671 572.345939,71.4471671 C572.345939,71.4471671 682.044666,18.9122087 768.424161,8.62399939 C768.424161,8.62399939 675.645117,149.975628 724.287229,149.975628 C772.929341,149.975628 830.046085,1.66572771 830.046085,1.66572771 C830.046085,1.66572771 987.034862,-15.3273798 993.717943,59.2382473 C1000.40103,133.803874 979.791491,184.844838 958.894745,190.081278 C938.003653,195.314886 803.928687,193.567518 807.411006,211.012878 C810.893326,228.46107 901.436468,256.373646 951.930106,240.672822 C951.930106,240.672822 896.210162,378.493997 823.078619,371.515853 C749.949903,364.537709 727.311997,319.179773 682.044666,315.687869 C636.771682,312.201629 603.689644,324.413381 626.324723,336.625133 C648.959801,348.836885 725.573664,340.626804 762.138022,371.773568 C798.705207,402.917501 828.304925,422.110228 760.399689,436.066516 C692.491626,450.022804 570.604779,441.300124 546.22854,388.961213 L521.852301,336.625133 Z" id="Fill-14" fill="#009BA0"/>
            <path d="M303,653 L692,653 L672.030868,823.315989 C667.305459,863.618834 633.154064,894 592.575143,894 L395.828589,894 C354.063656,894 319.326495,861.872114 316.071865,820.234187 L303,653 L303,653 Z" id="Rectangle" fill="#FFB201"/>
        </g>
    </g>
</svg>
