<svg viewBox="364.225 307.339 985.55 795.213" xmlns="http://www.w3.org/2000/svg" overflow="visible">
    <g id="Master/Stickers/Big Bush 1" stroke="none" stroke-width="1" fill="none" fill-rule="evenodd">
        <g id="plant" transform="translate(368.000000, 328.000000)">
            <path d="M549.070586,503.854203 C549.070586,503.854203 484.163302,428.207519 545.070037,380.159146 C545.070037,380.159146 589.553311,353.252411 625.83222,355.436026 C625.83222,355.436026 574.428998,441.5417 591.058672,450.105476 C607.6854,458.669251 641.410203,350.035845 641.410203,350.035845 C641.410203,350.035845 742.649422,340.227232 775.216481,355.871572 C775.216481,355.871572 688.671473,426.621307 706.894885,430.835509 C725.12419,435.046768 818.603876,365.600728 818.603876,365.600728 C818.603876,365.600728 912.828877,381.621757 907.806097,439.043196 C902.780371,496.461693 870.316418,514.195477 856.04642,512.66518 C841.773475,511.14077 758.301053,479.307656 756.483425,490.98794 C754.665797,502.668223 804.914222,540.837354 840.097251,542.626624 C840.097251,542.626624 773.666931,615.810119 729.519491,594.689082 C685.369105,573.568045 681.598337,540.08692 654.077626,527.529658 C626.556914,514.969454 603.063264,515.001826 614.428593,527.812175 C625.788031,540.616638 675.594568,553.065013 691.334577,580.875212 C707.074586,608.685411 721.197289,627.443316 675.517975,620.577581 C629.83866,613.711847 555.589889,580.32195 552.328764,542.088077 L549.070586,503.854203 Z" id="Fill-1" fill="#017C7F"/>
            <path d="M378.212225,433.211866 C378.212225,433.211866 481.325758,375.64253 433.205129,297.512716 C433.205129,297.512716 394.71039,249.543157 353.467919,237.206871 C353.467919,237.206871 375.46155,353.712332 353.467919,356.454706 C331.468404,359.197081 338.34362,224.870585 338.34362,224.870585 C338.34362,224.870585 229.734622,172.785997 187.115342,176.89516 C187.115342,176.89516 254.478928,290.661179 232.485297,287.921737 C210.485782,285.179363 134.870172,170.04069 134.870172,170.04069 C134.870172,170.04069 23.5134404,149.483145 5.63846679,215.27374 C-12.2335649,281.067267 16.6382242,313.964031 33.1334476,318.073193 C49.6345547,322.185289 155.492878,320.818501 152.742204,334.524508 C149.994471,348.227582 78.5034019,370.160713 38.6347972,357.824427 C38.6347972,357.824427 82.6279432,466.105697 140.371522,460.623881 C198.112158,455.142064 215.98419,419.502926 251.731195,416.763484 C287.475258,414.02111 313.596373,423.617954 295.724341,433.211866 C277.852309,442.805778 217.360998,436.353132 188.489209,460.826259 C159.61742,485.296453 136.24698,500.372181 189.866017,511.338747 C243.482112,522.302379 339.717487,515.450842 358.966327,474.332821 L378.212225,433.211866 Z" id="Fill-7" fill="#009BA0"/>
            <path d="M597.448809,631.636129 C597.448809,631.636129 688.579875,580.548847 646.051026,511.215839 C646.051026,511.215839 612.029528,468.647264 575.579651,457.699899 C575.579651,457.699899 595.017664,561.087685 575.579823,563.521256 C556.136781,565.954827 562.212865,446.752571 562.212865,446.752571 C562.212865,446.752571 466.22478,400.532191 428.558111,404.178629 C428.558111,404.178629 488.093825,505.135481 468.655976,502.70445 C449.212927,500.270816 382.384119,398.09585 382.384119,398.09585 C382.384119,398.09585 283.967649,379.852783 268.169944,438.235788 C252.374839,496.621396 277.891608,525.814254 292.469998,529.460776 C307.053588,533.109902 400.610565,531.897157 398.179555,544.059959 C395.751144,556.220158 332.567779,575.683669 297.332117,564.736305 C297.332117,564.736305 336.213162,660.825919 387.246598,655.9614 C438.277433,651.096881 454.072581,619.470488 485.665576,617.039539 C517.25597,614.605988 540.341675,623.122332 524.54649,631.636011 C508.751304,640.149689 455.289421,634.423479 429.772734,656.141061 C404.256048,677.85604 383.601409,691.234312 430.989622,700.966196 C478.375235,710.695476 563.427498,704.615512 580.439453,668.127122 L597.448809,631.636129 Z" id="Fill-7-Copy" fill="#009BA0" transform="translate(460.272938, 550.250082) scale(-1, 1) rotate(-105.000000) translate(-460.272938, -550.250082)"/>
            <path d="M485.384686,349.572254 C485.384686,349.572254 349.421761,273.480705 412.869752,170.217594 C412.869752,170.217594 463.628146,106.80748 518.015082,90.4998368 C518.015082,90.4998368 489.010285,244.494568 518.015082,248.117835 C547.019878,251.741102 537.955879,74.1951351 537.955879,74.1951351 C537.955879,74.1951351 652.16815,19.6396014 742.10172,8.95569168 C742.10172,8.95569168 645.505292,155.743922 696.148778,155.743922 C746.792265,155.743922 806.259073,1.72979416 806.259073,1.72979416 C806.259073,1.72979416 969.707137,-15.9168944 976.665193,61.5166414 C983.62325,138.950177 962.165738,191.954255 940.409198,197.392097 C918.658544,202.826997 779.067076,201.012423 782.692676,219.128758 C786.318275,237.248034 880.586806,266.234171 933.157999,249.929469 C933.157999,249.929469 875.145464,393.051458 799.004931,385.804924 C722.867341,378.55839 699.298001,331.455918 652.16815,327.82971 C605.032413,324.209384 570.589218,336.890819 594.155615,349.572254 C617.722011,362.253688 697.488144,353.727835 735.556939,386.072552 C773.628677,418.414328 804.446273,438.345237 733.747082,452.838305 C663.044948,467.331374 536.143079,458.273206 510.763882,403.921259 L485.384686,349.572254 Z" id="Fill-14" fill="#009BA0"/>
        </g>
    </g>
</svg>
