<svg viewBox="471.35 27.94 771.3 1096.105" xmlns="http://www.w3.org/2000/svg" overflow="visible">
    <g id="Master/Stickers/Trees" stroke="none" stroke-width="1" fill="none" fill-rule="evenodd">
        <g id="plant" transform="translate(470.000000, 35.000000)">
            <path d="M281.77081,809.698491 C231.894332,742.34442 305.412295,726.06733 271.303282,662.639989 C229.973339,585.783423 289.276143,601.217316 263.732946,523.877162 C243.52109,462.67916 208.226263,460.043608 205.083375,372.818925 C201.945307,285.594242 44.906948,280.680992 78.8424275,402.578901 C112.782727,524.47681 25.4711734,494.460532 40.8337264,583.024753 C61.3685478,701.402145 -21.0310787,653.987018 5.21589375,745.094909 C27.5438967,822.599483 -67.6667609,952.518532 158.66311,983 C360.092354,972.699586 331.652109,877.057398 281.77081,809.698491 Z" id="Fill-1" fill="#009BA0"/>
            <path d="M108.010127,665.55562 C110.39456,665.024548 112.758642,666.468894 113.392944,668.801987 L113.612976,669.688947 C113.669273,669.903744 113.73848,670.160611 113.821307,670.458424 C114.1791,671.7449 114.644258,673.2524 115.227862,674.9634 C116.913207,679.904463 119.20549,685.450658 122.193172,691.462461 C130.770422,708.721568 143.19356,726.18063 160.178524,742.739732 C161.97912,744.495182 162.015718,747.377927 160.260268,749.178524 C158.504818,750.97912 155.622073,751.015718 153.821476,749.260268 C136.076323,731.960037 123.057293,713.663528 114.038156,695.515255 C110.867103,689.134474 108.421282,683.216794 106.608886,677.903243 C106.039459,676.233808 105.568041,674.725576 105.186588,673.39087 L104.908429,672.390151 C104.736794,671.7538 104.621141,671.284052 104.55562,670.989873 C104.008929,668.53531 105.555564,666.102312 108.010127,665.55562 Z" id="Stroke-5" fill="#090E2B" fill-rule="nonzero"/>
            <path d="M70.2905225,812.779805 C72.5527203,811.863455 75.1201919,812.89544 76.1325027,815.088022 L76.3049178,815.486644 C76.3812449,815.656804 76.4978004,815.905334 76.6578132,816.229521 L76.8324313,816.578825 C77.4475061,817.794798 78.2520266,819.228357 79.2659874,820.862813 C82.2192467,825.623325 86.2499344,830.98533 91.519332,836.815183 C106.741908,853.65684 128.852702,870.743008 159.151452,886.987069 C161.367732,888.175283 162.201145,890.935171 161.012931,893.151452 C159.824717,895.367732 157.064829,896.201145 154.848548,895.012931 C123.643908,878.283195 100.700404,860.553548 84.7634766,842.921561 C79.1270479,836.685639 74.7677462,830.886481 71.5275658,825.663466 C70.4787085,823.972758 69.6116398,822.443948 68.9113966,821.090137 L68.7063134,820.689256 C68.244159,819.7756 67.9419947,819.109876 67.7798051,818.709478 C66.8356867,816.378728 67.9597732,813.723923 70.2905225,812.779805 Z" id="Stroke-7" fill="#090E2B" fill-rule="nonzero"/>
            <path d="M223.501676,728.294708 C223.891198,725.810352 226.220936,724.112154 228.705292,724.501676 C231.189648,724.891198 232.887846,727.220936 232.498324,729.705292 L232.404337,730.254221 C232.343173,730.591119 232.26025,731.020826 232.153315,731.539555 L231.947929,732.503579 C231.692908,733.664452 231.383508,734.951167 231.014798,736.355467 C229.672475,741.467945 227.812328,747.14525 225.349983,753.246471 C218.33714,770.622959 207.903663,787.982686 193.375258,804.176334 C183.678728,814.984277 172.448195,824.906797 159.579191,833.75235 C157.506825,835.176798 154.672097,834.651557 153.24765,832.579191 C151.823202,830.506825 152.348443,827.672097 154.420809,826.24765 C166.688197,817.815619 177.376533,808.372147 186.596865,798.094984 C200.382465,782.729281 210.271503,766.275418 216.905226,749.838316 C219.21918,744.10478 220.959673,738.792668 222.206777,734.042849 C222.63902,732.396574 222.978169,730.943371 223.2343,729.700914 L223.383045,728.955489 C223.433008,728.695005 223.46829,728.497748 223.490156,728.365929 L223.501676,728.294708 Z" id="Stroke-9" fill="#090E2B" fill-rule="nonzero"/>
            <path d="M696.632193,542.281436 C653.077597,435.215309 717.638966,359.642504 629.058827,156.838247 C540.478689,-45.9660107 419.837171,-46.6816644 401.538404,123.447202 C383.24447,293.576069 240.991237,401.592789 306.597137,555.155712 C371.073926,706.075743 237.500295,741.417695 280.83541,853.326143 C335.920208,995.574538 518.243914,1001 518.243914,1001 C716.793972,1001 749.057576,935.472962 764.553865,878.539735 C805.196709,729.21829 715.429785,588.489773 696.632193,542.281436 Z" id="Fill-11" fill="#FFB201"/>
            <path d="M608.533088,359.117358 C609.020558,356.650351 611.415634,355.045619 613.882642,355.533088 C616.349649,356.020558 617.954381,358.415634 617.466912,360.882642 L617.334036,361.52331 C617.199399,362.149755 617.004276,363.006342 616.743303,364.083735 L616.578774,364.756594 C615.822139,367.823223 614.850263,371.373624 613.641144,375.36954 C610.200525,386.740155 605.547071,399.432125 599.504404,413.138934 C582.267286,452.238545 557.358213,491.703204 523.368,529.064137 C521.675723,530.924232 518.795958,531.060276 516.935863,529.368 C515.075768,527.675723 514.939724,524.795958 516.632,522.935863 C549.930518,486.335218 574.315459,447.700967 591.17165,409.465428 C596.877581,396.52245 601.304171,384.531095 604.608592,373.769675 L604.924876,372.732096 C606.087732,368.889073 607.018007,365.490644 607.737357,362.575133 L607.940364,361.74153 C608.036469,361.341379 608.124526,360.966286 608.204748,360.616629 L608.470275,359.420493 C608.499875,359.281296 608.5207,359.180051 608.533088,359.117358 Z" id="Stroke-15" fill="#090E2B" fill-rule="nonzero"/>
            <path d="M636.592334,698.857705 C637.223206,696.423418 639.708008,694.961462 642.142295,695.592334 C644.576582,696.223206 646.038538,698.708008 645.407666,701.142295 L645.281389,701.611767 C645.101274,702.262095 644.82579,703.191895 644.445575,704.388712 L644.227742,705.067927 C643.229743,708.151743 641.948955,711.718862 640.356553,715.730903 C635.83117,727.132562 629.713619,739.852402 621.773467,753.582525 C599.151178,792.701021 566.477447,832.161811 521.924206,869.490183 C519.996631,871.105177 517.124811,870.851781 515.509817,868.924206 C513.894823,866.996631 514.148219,864.124811 516.075794,862.509817 C559.796835,825.878693 591.789021,787.24102 613.890204,749.023621 C621.603266,735.686182 627.528037,723.367177 631.892323,712.371402 C633.316369,708.783533 634.472604,705.586944 635.384474,702.813115 L635.563597,702.263995 C635.841767,701.40445 636.077042,700.644207 636.271662,699.986276 L636.561317,698.974084 L636.592334,698.857705 Z" id="Stroke-17" fill="#090E2B" fill-rule="nonzero"/>
            <path d="M417.385413,528.488388 C419.805916,528.158659 422.040877,529.79572 422.47777,532.1737 L422.600771,532.978141 L422.691983,533.544003 C422.757963,533.943671 422.834378,534.388015 422.921768,534.875952 C423.300467,536.990381 423.799896,539.453549 424.434645,542.236242 C426.257229,550.226314 428.796233,559.146078 432.16775,568.762052 C441.812692,596.270596 456.179717,623.786748 476.189821,649.460409 C489.56153,666.616777 505.054696,682.372169 522.82484,696.428917 C524.797095,697.989033 525.1312,700.852585 523.571083,702.82484 C522.010967,704.797095 519.147415,705.1312 517.17516,703.571083 C498.822229,689.053333 482.817709,672.777932 469.007195,655.058562 C448.351197,628.556198 433.529617,600.169466 423.574099,571.775126 C420.085456,561.825091 417.452828,552.576418 415.556141,544.261482 C414.889146,541.337422 414.361357,538.734391 413.957844,536.481408 L413.72973,535.167223 C413.613745,534.474058 413.534616,533.953943 413.488388,533.614587 C413.148961,531.122892 414.893719,528.827815 417.385413,528.488388 Z" id="Stroke-19" fill="#090E2B" fill-rule="nonzero"/>
            <path d="M155.5,580.44672 C157.942858,580.44672 159.936401,582.370467 160.048324,584.785656 L160.05328,585 L160.05328,1074 C160.05328,1076.51471 158.014707,1078.55328 155.5,1078.55328 C153.057142,1078.55328 151.063599,1076.62953 150.951676,1074.21434 L150.94672,1074 L150.94672,585 C150.94672,582.485293 152.985293,580.44672 155.5,580.44672 Z" id="Stroke-3" fill="#090E2B" fill-rule="nonzero"/>
            <path d="M518.5,254.44672 C520.942858,254.44672 522.936401,256.370467 523.048324,258.785656 L523.05328,259 L523.05328,1067 C523.05328,1069.51471 521.014707,1071.55328 518.5,1071.55328 C516.057142,1071.55328 514.063599,1069.62953 513.951676,1067.21434 L513.94672,1067 L513.94672,259 C513.94672,256.485293 515.985293,254.44672 518.5,254.44672 Z" id="Stroke-13" fill="#090E2B" fill-rule="nonzero"/>
        </g>
        <g id="plant" transform="translate(470.000000, 793.000000)">
            <path d="M2.74266392,315.96502 C5.67516741,315.554095 8.9502531,316.280063 11.8827566,315.869138 L639,315.869138 C638.712231,292.021796 625.104867,257.463013 604.27587,245.792746 C583.460576,234.136176 556.437694,234.506009 535.951279,246.69678 C545.187295,197.769323 551.874499,146.650266 538.404167,98.6953306 C524.961242,50.7403953 486.660554,6.59336403 437.191687,0.676045531 C390.806059,-4.85774306 345.763353,24.276832 319.055646,62.5887298 C292.347939,100.900628 280.371266,147.280351 268.901615,192.536879 C270.203427,171.127692 259.583379,149.389765 241.919842,137.226388 C224.242601,125.063011 200.138519,122.926202 180.597631,131.774785 C158.781997,141.65068 144.270216,163.511884 137.541902,186.496283 C130.827291,209.49438 130.840994,233.821134 130.909511,257.764358 C116.932158,226.095746 76.5211631,209.042363 44.0854819,221.123554 C11.6360974,233.218444 -7.42517532,282.885566 2.74266392,315.96502" id="Fill-1" fill="#F67A49"/>
            <path d="M135.599037,315.971181 C137.309359,315.726292 139.211237,316.175255 140.921559,315.916761 L506,315.916761 C505.835809,302.10775 497.899916,282.094888 485.790838,275.346839 C473.668077,268.59879 457.9468,268.802864 446.015595,275.877432 C451.392847,247.538348 455.278698,217.9204 447.452266,190.152724 C439.612151,162.385047 417.309555,136.821371 388.507736,133.392927 C361.512018,130.182162 335.296206,147.052283 319.739119,169.241936 C304.195715,191.431588 297.231285,218.274128 290.540506,244.490842 C291.293048,232.096744 285.122207,219.512178 274.832911,212.478425 C264.543615,205.431068 250.505294,204.179414 239.135075,209.308475 C226.437647,215.036153 217.981816,227.688745 214.0686,240.994373 C210.169066,254.313606 210.169066,268.408321 210.210114,282.258147 C202.082665,263.932297 178.548637,254.055113 159.666685,261.061655 C140.77105,268.054593 129.674483,296.81543 135.599037,315.971181" id="Fill-4" fill="#FFB201"/>
        </g>
    </g>
</svg>
