<svg viewBox="120 120 2960 1960" xmlns="http://www.w3.org/2000/svg" overflow="visible">
    <g id="Master/Scenes/Freelancing" stroke="none" stroke-width="1" fill="none" fill-rule="evenodd">
        <g id="Background" transform="translate(0.000000, -177.000000)">
            <g id="Flying Objects" opacity=".5" transform="translate(2014.000000, 215.000000) scale(1 1)">
                <g id="Flying Objects/Cloud 2" stroke="none" stroke-width="1" fill="none" fill-rule="evenodd">
                    <path d="M479.95575,473.895048 C489.613069,459.137123 499.099888,436.733126 487.997876,423.547909 C481.436886,415.755283 470.330969,416.37302 462.370839,421.934228 C454.409408,427.495437 448.858402,436.870226 443.55859,445.96136 C452.064059,424.955151 460.742631,403.137375 461.346539,379.753193 C461.950447,356.369012 424.683149,265.573363 301,363.097442 C274.191914,384.2356 253.304938,454.747164 158,473.792617 C160.945352,473.792617 156.578734,478.669903 159.524086,478.669903 L479.95575,473.895048 Z" id="cloud" fill="#E4E8FD" transform="translate(325.500000, 398.771931) scale(-1, 1) translate(-325.500000, -398.771931)"/>
                </g>
            </g>
            <g id="Phone" transform="translate(1218.000000, 483.000000) scale(1 1)">
                <g id="Phone/Screen 1" stroke="none" stroke-width="1" fill="none" fill-rule="evenodd">
                    <g id="Group-19">
                        <path d="M855.432,1748.85552 L106.6968,1748.85552 C47.7696,1748.85552 0,1701.08592 0,1642.15872 L0,106.69632 C0,47.76912 47.7696,-0.000479999997 106.6968,-0.000479999997 L855.432,-0.000479999997 C914.3592,-0.000479999997 962.1288,47.76912 962.1288,106.69632 L962.1288,1642.15872 C962.1288,1701.08592 914.3592,1748.85552 855.432,1748.85552 Z" id="Stroke-1" fill="#090E2B"/>
                        <path d="M827.33976,71.99976 L714.03336,71.99976 L714.03336,101.26056 C714.03336,141.15336 681.69336,173.49576 641.79816,173.49576 L320.33016,173.49576 C280.43496,173.49576 248.09256,141.15336 248.09256,101.25816 L248.09256,71.99976 L134.79096,71.99976 C100.11096,71.99976 71.99736,100.11096 71.99736,134.79096 L71.99736,1614.06456 C71.99736,1648.74456 100.11096,1676.85576 134.79096,1676.85576 L827.33736,1676.85576 C862.01736,1676.85576 890.12856,1648.74456 890.12856,1614.06456 L890.12856,134.79096 C890.12856,100.11096 862.01736,71.99976 827.33976,71.99976 Z" id="Stroke-3" fill="#FFF"/>
                        <path d="M280.88976,1317.76248 L190.76016,1317.76248 C169.25616,1317.76248 151.82496,1300.33128 151.82496,1278.82728 L151.82496,1188.69768 C151.82496,1167.19368 169.25616,1149.76248 190.76016,1149.76248 L280.88976,1149.76248 C302.39376,1149.76248 319.82496,1167.19368 319.82496,1188.69768 L319.82496,1278.82728 C319.82496,1300.33128 302.39376,1317.76248 280.88976,1317.76248 Z" id="Stroke-13" stroke="#C7D2F2" stroke-width="5" stroke-linecap="round" stroke-linejoin="round" stroke-dasharray="10,12"/>
                    </g>
                    <path d="M281.0648,1318 L190.9352,1318 C169.4312,1318 152,1300.5688 152,1279.0648 L152,1188.9352 C152,1167.4312 169.4312,1150 190.9352,1150 L281.0648,1150 C302.5688,1150 320,1167.4312 320,1188.9352 L320,1279.0648 C320,1300.5688 302.5688,1318 281.0648,1318 Z" id="Stroke-13-Copy-2" fill="#A191FF"/>
                    <path d="M781.741436,802.6768 L191.258564,802.6768 C169.575969,802.6768 152,785.2456 152,763.7416 L152,444.9352 C152,423.4312 169.575969,406 191.258564,406 L781.741436,406 C803.424031,406 821,423.4312 821,444.9352 L821,763.7416 C821,785.2456 803.424031,802.6768 781.741436,802.6768 Z" id="Stroke-5-Copy" fill="#FFB201"/>
                    <path d="M281.0648,1069 L190.9352,1069 C169.4312,1069 152,1051.5664 152,1030.0648 L152,939.9352 C152,918.4312 169.4312,901 190.9352,901 L281.0648,901 C302.5688,901 320,918.4312 320,939.9352 L320,1030.0648 C320,1051.5664 302.5688,1069 281.0648,1069 Z" id="Stroke-7-Copy" fill="#FF0057"/>
                    <rect id="Rectangle" fill="#E7EAFD" x="378" y="901" width="443" height="18" rx="9"/>
                    <rect id="Rectangle-Copy-3" fill="#E7EAFD" x="378" y="1162" width="443" height="18" rx="9"/>
                    <rect id="Rectangle-Copy" fill="#E7EAFD" x="378" y="965" width="332" height="18" rx="9"/>
                    <rect id="Rectangle-Copy-4" fill="#E7EAFD" x="378" y="1226" width="332" height="18" rx="9"/>
                    <rect id="Rectangle-Copy-2" fill="#E7EAFD" x="378" y="1029" width="257" height="18" rx="9"/>
                    <rect id="Rectangle-Copy-5" fill="#E7EAFD" x="378" y="1290" width="257" height="18" rx="9"/>
                </g>
            </g>
            <path d="M2776.5,2228 C2778.433,2228 2780,2229.567 2780,2231.5 C2780,2233.36856 2778.53572,2234.89513 2776.69204,2234.99482 L2776.5,2235 L130.5,2235 C128.567003,2235 127,2233.433 127,2231.5 C127,2229.63144 128.464278,2228.10487 130.307965,2228.00518 L130.5,2228 L2776.5,2228 Z" id="Floor" fill="#090E2B" fill-rule="nonzero"/>
            <g id="Outdoor Plants" transform="translate(2401.000000, 1267.000000) scale(1 1)">
                <g id="Outdoor Plants/Bush" stroke="none" stroke-width="1" fill="none" fill-rule="evenodd">
                    <g id="Group-16-Copy" transform="translate(98.000000, 689.000000)">
                        <path d="M2.39500229,275.969448 C4.95578,275.610539 7.81571397,276.244612 10.3764917,275.885703 L558,275.885703 C557.748709,255.057012 545.866222,224.872758 527.67752,214.67974 C509.500785,204.498686 485.903338,204.821704 468.013793,215.46934 C476.079046,172.735231 481.918576,128.086941 470.155752,86.2022508 C458.41686,44.3175605 424.971188,5.75876099 381.773022,0.590470148 C341.267263,-4.24283888 301.934196,21.2038153 278.611973,54.6661058 C255.28975,88.1283962 244.831246,128.637268 234.815494,168.165122 C235.952288,149.465959 226.678444,130.479668 211.253946,119.855959 C195.817483,109.23225 174.768847,107.365923 157.704973,115.094432 C138.654702,123.720214 125.982442,142.814177 120.107013,162.889159 C114.24355,182.976104 114.255516,204.223522 114.315347,225.135958 C102.109771,197.476031 66.8212974,182.581304 38.4971814,193.133231 C10.1610992,203.697122 -6.48395591,247.077267 2.39500229,275.969448" id="Fill-1" fill="#F67A49"/>
                        <path d="M118.397008,275.974803 C119.891241,275.760692 121.552828,276.153228 123.047061,275.927223 L442,275.927223 C441.856554,263.85377 434.923314,246.356186 424.344146,240.456253 C413.753025,234.556319 400.018038,234.734745 389.59427,240.920159 C394.292138,216.142818 397.687034,190.247344 390.849426,165.969594 C383.999863,141.691845 364.515068,119.341089 339.352189,116.343542 C315.76722,113.536316 292.863621,128.286149 279.27208,147.686938 C265.692493,167.087727 259.607977,190.556615 253.762539,213.478332 C254.420001,202.641962 249.02881,191.639062 240.039506,185.489334 C231.050202,179.32771 218.785539,178.233367 208.85188,182.717792 C197.758697,187.725599 190.37121,198.787974 186.952406,210.42131 C183.545555,222.066541 183.545555,234.389789 183.581417,246.498926 C176.480823,230.476325 155.92018,221.840536 139.423851,227.966474 C122.915568,234.080518 113.220986,259.226605 118.397008,275.974803" id="Fill-4" fill="#FFB201"/>
                    </g>
                </g>
            </g>
            <g id="Outdoor Plants" transform="translate(2106.000000, 1267.000000) scale(1 1)">
                <g id="Outdoor Plants/Trees" stroke="none" stroke-width="1" fill="none" fill-rule="evenodd">
                    <g id="Group" transform="translate(50.000000, 27.000000)">
                        <path d="M246.327941,707.554023 C202.725234,648.694159 266.995654,634.469818 237.177083,579.041474 C201.045875,511.877502 252.889207,525.364984 230.558991,457.77841 C212.889507,404.298257 182.034281,401.995081 179.286724,325.770544 C176.543382,249.546006 39.2582753,245.25238 68.925141,351.777408 C98.5962208,458.302435 22.2672523,432.071593 35.6974086,509.466735 C53.6492336,612.915227 -18.38566,571.479753 4.55980649,651.097777 C24.0792556,718.828035 -59.1552187,832.362634 138.705486,859 C314.797719,849.998599 289.934862,766.418112 246.327941,707.554023 Z" id="Fill-1" fill="#009BA0"/>
                        <path d="M95,585 C95,585 102.269883,617.395249 137,651" id="Stroke-5" stroke="#090E2B" stroke-width="9.107" stroke-linecap="round" stroke-linejoin="round"/>
                        <path d="M63,713 C63,713 75.8067111,744.89889 137,778" id="Stroke-7" stroke="#090E2B" stroke-width="9.107" stroke-linecap="round" stroke-linejoin="round"/>
                        <path d="M199,637 C199,637 190.990083,687.972701 137,725" id="Stroke-9" stroke="#090E2B" stroke-width="9.107" stroke-linecap="round" stroke-linejoin="round"/>
                        <path d="M608.603445,473.480495 C570.590587,379.998182 626.937388,314.013535 549.627883,136.939688 C472.318378,-40.1341592 367.026875,-40.7590157 351.056381,107.78507 C335.090104,256.329155 210.936686,350.641456 268.195115,484.721371 C324.468099,616.493705 207.88992,647.351714 245.711222,745.061987 C293.787219,869.262883 452.912681,874 452.912681,874 C626.199908,874 654.358401,816.786582 667.882995,767.076651 C703.354583,636.700085 625.009296,513.826235 608.603445,473.480495 Z" id="Fill-11" fill="#FFB201"/>
                        <path d="M535,314 C535,314 520.978644,385.165722 454,459" id="Stroke-15" stroke="#090E2B" stroke-width="9.107" stroke-linecap="round" stroke-linejoin="round"/>
                        <path d="M560,611 C560,611 541.481013,682.167801 453,756" id="Stroke-17" stroke="#090E2B" stroke-width="9.107" stroke-linecap="round" stroke-linejoin="round"/>
                        <path d="M365,465 C365,465 376.498556,549.574282 454,611" id="Stroke-19" stroke="#090E2B" stroke-width="9.107" stroke-linecap="round" stroke-linejoin="round"/>
                        <line x1="136" y1="938" x2="136" y2="511" id="Stroke-3" stroke="#090E2B" stroke-width="9.107" stroke-linecap="round" stroke-linejoin="round"/>
                        <line x1="453" y1="932" x2="453" y2="226" id="Stroke-13" stroke="#090E2B" stroke-width="9.107" stroke-linecap="round" stroke-linejoin="round"/>
                    </g>
                </g>
            </g>
            <g id="Flying Objects" opacity=".5" transform="translate(905.000000, 400.000000) scale(-1, 1) translate(-905.000000, -400.000000) translate(555.000000, 0.000000) scale(1 1)">
                <g id="Flying Objects/Cloud 2" stroke="none" stroke-width="1" fill="none" fill-rule="evenodd">
                    <path d="M479.95575,473.895048 C489.613069,459.137123 499.099888,436.733126 487.997876,423.547909 C481.436886,415.755283 470.330969,416.37302 462.370839,421.934228 C454.409408,427.495437 448.858402,436.870226 443.55859,445.96136 C452.064059,424.955151 460.742631,403.137375 461.346539,379.753193 C461.950447,356.369012 424.683149,265.573363 301,363.097442 C274.191914,384.2356 253.304938,454.747164 158,473.792617 C160.945352,473.792617 156.578734,478.669903 159.524086,478.669903 L479.95575,473.895048 Z" id="cloud" fill="#E4E8FD" transform="translate(325.500000, 398.771931) scale(-1, 1) translate(-325.500000, -398.771931)"/>
                </g>
            </g>
        </g>
        <g id="Chair" transform="translate(666.000000, 1259.000000) scale(1 1)">
            <g id="Chair/Stool" stroke="none" stroke-width="1" fill="none" fill-rule="evenodd">
                <g id="Group" transform="translate(249.000000, 425.000000)" fill="#8E2420">
                    <path d="M32,0.639462324 L21.361,173.639462 L181.639,173.639462 L171,0.639462324 L189,0.639462324 L195.476,173.639462 L196,173.639462 L196,186.639462 L195.963,186.639462 L203,374.639462 L194,374.639462 L182.439,186.639462 L20.561,186.639462 L9,374.639462 L0,374.639462 L14,0.639462324 L32,0.639462324 Z" id="Combined-Shape"/>
                </g>
                <path d="M233.392254,403.051901 L352.708336,399.021055 C353.123705,399.007023 353.539436,399.00738 353.95478,399.022127 L466.638699,403.023039 C476.325148,403.366962 484,411.319151 484,421.011704 L484,430.639462 C484,440.580588 475.941125,448.639462 466,448.639462 L234,448.639462 C224.058875,448.639462 216,440.580588 216,430.639462 L216,421.041638 C216,411.337076 223.693225,403.379563 233.392254,403.051901 Z" id="Rectangle" fill="#FF0057"/>
            </g>
        </g>
        <g transform="translate(501.000000, 557.000000) scale(1 1)" id="Master/Character/Sitting">
            <g id="Master/Character/Sitting" stroke="none" stroke-width="1" fill="none" fill-rule="evenodd">
                <g id="Sitting" transform="translate(179.000000, 940.000000) scale(1 1)">
                    <g id="Sitting/On Chair 1" stroke="none" stroke-width="1" fill="none" fill-rule="evenodd">
                        <path d="M410.615323,399.49997 C410.615323,399.49997 400.357969,471.949685 396.171539,502.905682 C391.949971,534.125643 467.0487,503.736716 467.0487,503.736716 C467.0487,503.736716 453.509565,484.44329 453.304761,479.157997 C453.100961,473.870697 476.218696,412 476.218696,412 L410.615323,399.49997 Z" id="Fill-3" fill="#ff8282"/>
                        <path d="M561.035706,7.46069873e-14 C597.897949,16.8477074 635.153618,59.3884812 602.589029,139.128809 C570.024441,218.869137 493.394303,411.87247 481.349448,420.555326 C469.305594,429.239182 405.784608,412 405.784608,412 C405.784608,412 412.732597,330.944505 426.534884,251.242608 C436.641716,192.880271 457.952435,150.325862 457.952435,150.325862 C457.952435,150.325862 286.540837,174.784268 243.98254,146.076381 C188.124727,108.397247 229.480836,6.86053872 261.586066,-5.71064401 C302.858588,-21.8713886 490.854841,-32.0758202 561.035706,7.46069873e-14 Z" id="Fill-5" fill="#090E2B"/>
                        <path d="M559.105053,537.550495 C553.718837,520.869499 514.662001,509.852921 486.4598,501.514412 C476.966506,498.70607 463.702961,484.835405 457.545853,485.001479 C448.581857,485.24512 457.367415,503.898122 427.362791,502.274176 C419.4193,501.844571 418.851908,493.484184 401.591555,491.580796 C398.786673,491.272515 394.499152,490.727553 390.796066,497.394383 C388.732001,501.110663 380.282268,534.66359 388.577622,548.345309 C446.664152,549.845942 506.41276,548.363209 558.020392,547.881892 C563.059757,547.834159 560.482433,541.818697 559.105053,537.550495" id="Fill-17" fill="#FF0057"/>
                        <path d="M654.970564,412 C654.970564,412 665.530533,466.509706 672.596211,475.377601 C679.662889,484.243493 716.32892,494.221378 717.974942,499.698195 C719.618961,505.175012 639.820958,518 639.820958,518 L591,416.698422 L654.970564,412 Z" id="Fill-1" fill="#ff8282"/>
                        <path d="M790.105053,534.5497 C784.718837,517.869641 745.662001,506.853025 717.4598,498.513492 C707.966506,495.706135 694.702961,481.834427 688.545853,482.001496 C679.581857,482.244144 688.367415,500.898205 658.362791,499.274253 C650.420302,498.844647 649.85291,490.483237 632.591555,488.580837 C629.786673,488.27156 625.499152,487.727591 621.796066,494.393449 C619.732001,498.109742 611.282268,531.662786 619.577622,545.345546 C677.664152,546.846185 737.41276,545.362452 789.020392,544.881134 C794.059757,544.8334 791.482433,538.817918 790.105053,534.5497" id="Fill-10" fill="#FF0057"/>
                        <path d="M722.704751,510.429527 C726.392384,503.004274 728.005104,501.713139 726.433049,500.543939 C722.673012,497.748284 703.571309,506.385021 702.069675,511.523009 C700.944937,515.373796 713.664197,504.228541 723.820563,502.565701 C719.658833,506.366337 715.778784,518.019983 719.874061,515.696334 C739.826756,504.381943 742.973841,507.006496 742.998637,506.585624 C743.116665,504.585496 735.565843,502.966906 722.704751,510.429527" id="Fill-15" fill="#FFB201"/>
                        <path d="M180.126096,77 C192.090433,138.955221 247.290014,161.21191 295.189049,159.361921 C368.355288,156.536045 442.938988,124.042498 468.151215,113.183029 C465.930109,129.164147 477.804596,220.024734 497.628146,262.074146 C517.451696,304.123559 582.008895,430.623213 582.008895,430.623213 C582.008895,430.623213 654.850327,431.050084 657.965073,413.369038 C660.014248,401.737852 591.630112,76.8494703 569.008895,20.5961921 C556.018259,-11.7082512 513.975789,-25.6487365 427.5,-33 C340.646127,-40.3834042 214.030282,-26.7715765 214.030282,-26.7715765 C214.030282,-26.7715765 168.16176,15.0447792 180.126096,77 Z" id="Fill-7" fill="#001386"/>
                        <path d="M491.704751,514.429893 C495.392384,507.004835 497.005104,505.713735 495.432058,504.543583 C491.67202,501.748984 472.571309,510.385493 471.069675,515.522362 C469.944937,519.373048 482.664197,508.228087 492.820563,506.566274 C488.658833,510.36681 484.777792,522.019165 488.874061,519.69656 C508.826756,508.381485 511.973841,511.005969 511.998637,510.585107 C512.116665,508.585032 504.565843,506.966486 491.704751,514.429893" id="Fill-22" fill="#FFB201"/>
                        <path d="M546.8316,554.3915 L407.0166,556.8575 C397.6626,557.2315 383.6706,554.0145 382.3176,546.2435 C381.3066,540.4375 383.5546,527.7955 384.0206,526.9545 C387.2776,521.0945 415.0326,526.0385 423.1176,545.8275 C474.1316,549.6495 561.0086,545.9125 561.0086,545.9125 C561.0086,545.9125 562.3126,553.5935 546.8316,554.3915" id="Fill-19" fill="#090E2B"/>
                        <path d="M777.7223,550.7851 L637.9073,553.2511 C628.5543,553.6251 614.5613,550.4091 613.2083,542.6381 C612.1983,536.8321 614.4453,524.1901 614.9123,523.3491 C618.1683,517.4891 645.9233,522.4331 654.0083,542.2221 C705.0223,546.0441 791.9003,542.3071 791.9003,542.3071 C791.9003,542.3071 793.2033,549.9881 777.7223,550.7851" id="Fill-12" fill="#090E2B"/>
                    </g>
                </g>
                <g id="Upper Body/Sitting" transform="translate(243.000000, 170.000000) scale(1 1.0010526315789474)">
                    <g id="Upper Body/Sitting/Reading Book 2" stroke="none" stroke-width="1" fill="none" fill-rule="evenodd">
                        <path d="M459,586.835192 C459,586.835192 477.747127,576.82565 489.003701,569.661714 C514.007015,553.749045 524.307595,546.820919 526.267274,533.245081 C529.138804,513.380052 537.723397,513.254869 544.72225,513.254869 C548.821578,513.254869 558.433003,509.136852 561.715465,515.820619 C561.558491,521.017212 562.96626,534.245543 560.667637,536.608997 C557.1166,540.260498 526.504749,581.162253 500.905949,610.394851 C484.808536,628.777322 468.591037,639 468.591037,639 C468.591037,639 465.394025,621.611731 459,586.835192 Z" id="Fill-1" fill="#ff8282"/>
                        <path d="M366.211468,542.746682 C371.031929,593.150552 385.461867,610.402764 387.45985,618.355772 C387.45985,618.355772 449.07185,584.537316 475.966956,572.798331 C486.73814,611.410755 492.252755,675.201635 493,678.947349 C486.273793,687.187718 369.516303,724.697377 356.830231,721.845666 C352.717956,720.921265 330.896112,722.636909 324.729337,691.157548 C311.553071,623.897035 315.773638,503.983167 333.202648,480 C333.202648,480 361.391006,492.342812 366.211468,542.746682 Z" id="Fill-3" fill="#3615F6"/>
                        <polygon id="Fill-5" fill="#090E2B" points="510.969919 377.281843 454 521.593005 540.179285 528 595 392.763083 565.218314 348 553.78891 384.437785"/>
                        <path d="M208.790041,448.406505 C205.996263,461.316702 156,471.803353 156,471.803353 C156,471.803353 252.987464,531.327979 269.715391,527.853615 C300.560547,521.448378 315.341479,490.273832 321,475.480856 C304.182843,471.025212 285.379589,464.806458 274.396404,459.875134 C263.412216,454.94381 268.561741,418.73679 267.890018,400.336817 C245.135624,395.831312 213.128272,387 213.128272,387 C213.128272,387 211.58382,435.496308 208.790041,448.406505 Z" id="Fill-8" fill="#ff8282"/>
                        <path d="M181.312855,464 C181.312855,464 237.839397,505.314096 266.696933,505.992421 C280.837236,506.324091 296.733328,477.513738 299.528993,467.329863 C314.882133,472.44108 329.686323,478.286751 337.082486,483.047236 C342.981778,507.573849 348.969059,563.684059 347.868191,586.968906 C346.814318,609.286716 332.147078,652.366881 333.149958,671.170185 C333.831354,683.959326 334.198135,700.833325 337.779757,735.306821 C338.480609,742.052597 327.186879,767.629873 225,767.629873 C147.18877,767.629873 124.666695,813.744229 102.065692,803.52059 C100.040935,784.647355 145.485481,719.85278 146.65334,701.680849 C147.8202,683.507918 140.963023,650.469768 138.506318,625.831266 C136.050613,601.193763 117.206896,498.743299 121.294796,487.954485 C124.020062,480.761943 144.026082,472.777114 181.312855,464 Z" id="Fill-10" fill="#3615F6"/>
                        <path d="M175.618135,899.320199 C181.881797,905.360124 184.925178,908.521854 187.253434,914.186343 C190.482821,922.041542 191.503878,931.882724 192.386906,934.72745 C195.66859,945.305557 184.84095,938.985163 182.010882,931.782454 C176.441172,944.987615 185.329778,971.383957 176.441172,968.826798 C149.999628,961.219228 152.726151,941.884277 150.455222,910.932779 C149.658687,900.080084 114.563877,866.761143 109.173185,856.523524 C106.308877,851.0817 139.841795,817.78872 145.595554,825.023849 C151.348307,832.258979 164.152859,888.260815 175.618135,899.320199 Z" id="Fill-12" fill="#ff8282"/>
                        <path d="M140.304538,476 C140.304538,476 99.4531268,487.045798 88.5149257,532.694102 C77.5767246,578.341406 25.9818326,673.81939 20.5949742,707.479625 C12.0347737,760.963242 24.534572,814.963078 59.8565567,907 C73.8507543,896.869716 145.805583,838.84918 149.972851,823.091516 C133.448204,792.88174 115.75612,738.58778 117.973648,712.329676 C120.191176,686.070571 163.117548,632.607962 165.603867,600.989591 C167.994906,570.569393 159.561796,528.906196 140.304538,476 Z" id="Fill-15" fill="#3615F6"/>
                        <path d="M538.847874,508.082556 C546.83495,522.301006 537.403477,521.610412 535.366586,529.293637 C531.371534,544.354152 561.347549,532.697774 561.347549,532.697774 C561.347549,532.697774 562.367004,521.611409 561.857276,517.212738 C560.861037,508.617691 557.74211,498.266763 549.454243,493.233305 C546.36156,491.354851 534.999178,501.231432 538.847874,508.082556" id="Fill-17" fill="#ff8282"/>
                        <path d="M373.720806,642.745385 C373.322387,643.717771 370.094305,651.112734 369.010207,652.989528 C368.650895,653.611569 377.840005,626.345685 386.831465,618.082479 C387.234334,617.713875 386.822144,618.671011 386.558538,619.173284 C382.602454,626.718523 377.072087,634.56623 373.720806,642.745385 Z" id="Fill-19" fill="#090E2B"/>
                        <path d="M333.699946,653.074671 C335.443776,640.667987 339.084492,628.614202 341.483124,616.399112 C345.25961,596.044288 344.133504,574.373636 338.999687,555.113462 C338.937372,554.887941 338.261183,552.058616 338.451096,552.001736 C338.641008,551.944857 339.69801,554.658427 339.762304,554.909894 C351.84053,595.67243 344.066983,614.726014 335.865144,653.420936 C334.060623,666.801978 333.883108,683.711695 334.783021,700.5276 C335.034231,705.221763 335.106604,710.350111 335.557059,712.754462 C335.697074,713.501807 335.727046,713.881154 335.656022,713.979165 C335.472973,714.231769 334.661243,712.233456 333.699946,705.459149 C331.461693,689.686073 331.405186,668.457615 333.699946,653.074671 Z" id="Fill-21" fill="#090E2B"/>
                        <path d="M166.034626,557.921793 C172.614809,592.820294 162.180462,628.246502 142.079421,656.934218 C141.872859,657.237475 142.110207,656.413494 142.324713,656.063352 C157.692709,630.151834 167.001891,601.606767 165.512263,571.030677 C165.302722,566.722233 164.885626,560.520427 164.40398,556.25787 C164.279844,555.369047 165.898573,556.989078 166.034626,557.921793" id="Fill-23" fill="#090E2B"/>
                        <path d="M138.870584,800.49312 C139.916681,803.568288 134.375696,792.007189 131.079256,783.179662 C128.154162,773.278257 123.614607,761.392143 123,752 C128.856671,767.664078 133.460155,784.588303 138.870584,800.49312 Z" id="Fill-25" fill="#090E2B"/>
                        <path d="M534.710282,536.510255 C532.454763,529.677208 535.928745,525.430788 540.109478,521.812478 C540.586587,521.400002 541.506201,520.48306 541.94661,520.025084 C542.125919,519.839124 541.813439,520.735293 541.601623,521.126008 C539.867254,524.324918 536.276878,526.326957 535.233529,531.940383 C535.074144,532.795008 535.439053,538.718037 534.710282,536.510255" id="Fill-27" fill="#090E2B"/>
                        <polygon id="Fill-29" fill="#FFB201" points="543.342219 354 530 380.50771 587.323352 390 588 389.103302"/>
                    </g>
                </g>
                <g id="Head" transform="translate(341.000000, 346.000000) scale(1 1)">
                    <g id="Head/Long Hair Hat Blue" stroke="none" stroke-width="1" fill="none" fill-rule="evenodd">
                        <path d="M70.2561019,97.4988116 C55.8815648,61.6950724 65.0293703,37.9505667 97.6995186,26.2652945 C146.704741,8.73738625 185.296388,17.974116 190.235438,59.3051654 C198.157562,125.599223 94.9177557,158.925445 70.2561019,97.4988116 Z" id="Path-10" fill="#090E2B"/>
                        <path d="M146.175763,222.265294 C53.2245817,222.265294 -22,206.483116 -22,143.463659 C-22,80.4451763 31.2016807,46.241742 130.854945,31.590673 C230.508209,16.939604 302,13.2004582 302,96.454099 C302,159.473556 239.129312,222.265294 146.175763,222.265294 Z" id="Fill-1" fill="#090E2B"/>
                        <path d="M-106.281498,235.5 C-66.0679622,209.611032 -17.144614,224.3795 8.88738598,215.1235 C51.195386,200.0805 45.4881941,152.689596 85.35,135.013504 C96.1764599,100.831573 126.660547,83.7612703 171.658946,83.7612703 C242.273176,83.7612703 244.238693,140.447 245.970693,150 C252.335693,185.102 239.1158,253.4885 252.4698,276.9925 C274.8878,316.4545 264.5268,342.2155 252.8368,351.6275 C240.2348,361.7745 203.5688,352.4845 195.6138,345.8925 C180.4328,333.3135 165.1148,328.3775 165.1148,286.6725 C157.1888,274.5035 156.7218,270.9005 158.5118,256.1275 C160.6658,238.3535 162.69106,222.2745 124.43506,215.1235 C127.545511,245.85586 132.654096,267.016784 118.354071,282.575637 C104.054045,298.13449 89.6971105,298.13449 72.0618,304 C35.0070839,316.324411 22.5879437,420.655109 -90.4692058,376.973466 C-151.085206,354.330466 -146.495034,261.388968 -106.281498,235.5 Z" id="Fill-3" fill="#001386"/>
                        <path d="M234.766351,156.809989 C243.747501,193.621941 240.591641,218.766488 232.575188,234.654952 C223.138867,253.357571 215.14308,262.203043 198.631249,262.783783 C166.782298,263.903948 146.769876,252.085896 135.517429,241.802756 C123.663779,230.9702 119.685475,218.292019 116.4017,210.0813 C115.990445,209.052937 115.616439,207.955724 115.276593,206.802752 L115.615,206.7175 C104.397,209.6475 85.35,199.8205 85.35,176.7455 C85.35,166.516571 101.568204,153.837822 112.35613,165.811952 C112.490126,163.05239 112.62352,161.390056 112.62352,161.390056 C120.16352,131.230056 163.008694,114.037304 190.5347,110.2713 C238.201544,103.749703 225.785202,119.998038 234.766351,156.809989 Z" id="Combined-Shape" fill="#ff8282"/>
                        <path d="M110.260906,179.030159 C107.387906,173.262159 100.466906,169.688159 94.4889061,173.724159 C93.1359061,174.637159 94.9599061,175.262159 95.5309061,175.198159 C102.631906,174.269159 105.450906,176.210159 107.783906,180.247159 C105.552906,180.794159 103.323906,182.779159 103.038906,185.021159 C102.864906,186.397159 103.340906,190.470159 104.390906,189.185159 C105.116906,188.297159 103.516906,182.239159 108.805906,182.792159 C108.885906,182.810159 108.957906,182.814159 109.032906,182.821159 C109.281906,183.419159 111.272906,184.657159 112.127906,183.619159 C112.651906,182.985159 111.572906,181.667159 110.260906,179.030159" id="Fill-8" fill="#090E2B"/>
                        <path d="M184.510972,83.8578 C156.443412,85.8888 116.344674,115.8978 109.891199,137.8978 C108.798428,141.6248 109.800397,161.00949 112.187365,165.38949 C115.363503,171.22049 115.016418,184.5168 124.481581,186.0588 C141.168954,188.7758 124.021313,163.9558 126.553271,157.4708 C136.09628,133.0178 166.368842,148.5498 184.510972,143.0138 C209.353739,135.4338 218.55617,130.0448 219.193538,129.0798 C222.416384,141.4558 239.795617,165.1488 245.815099,169.7678 C247.772938,171.2688 245.134915,144.3788 238.851728,122.6218 C235.049899,109.4558 211.193836,81.9268 184.510972,83.8578 Z" id="Fill-9" fill="#001386"/>
                        <path d="M107.2742,236.0906 C95.6422,236.0906 86.1782,226.6266 86.1782,214.9946 C86.1782,208.8476 88.8402,202.9286 93.5032,198.9136 C94.2692,199.6966 95.1862,200.5656 95.8692,201.1486 C91.8702,204.5926 89.1782,209.7216 89.1782,214.9946 C89.1782,224.9726 97.2962,233.0906 107.2742,233.0906 C117.2522,233.0906 125.3702,224.9726 125.3702,214.9946 C125.3702,205.0176 117.2522,196.8996 107.2742,196.8996 C106.4462,196.8996 105.7742,196.2276 105.7742,195.3996 C105.7742,194.5706 106.4462,193.8996 107.2742,193.8996 C118.9062,193.8996 128.3702,203.3626 128.3702,214.9946 C128.3702,226.6266 118.9062,236.0906 107.2742,236.0906" id="Fill-11" fill="#FFF"/>
                        <path d="M152.051658,254.807156 C147.761215,252.73178 139.062884,248.94355 137.181884,246.48855 C136.201884,245.20955 139.422217,246.726877 141.112217,247.783877 C143.361217,249.189877 152.489516,253.11955 163.690516,257.23955 C164.661516,257.59655 170.871516,259.58955 171.049516,259.91355 C171.216516,260.21655 170.663516,260.81555 169.946516,260.78355 C165.129516,260.56555 156.78076,257.09472 152.051658,254.807156 Z" id="Fill-4" fill="#090E2B" transform="translate(154.039749, 253.392391) rotate(5.000000) translate(-154.039749, -253.392391)"/>
                    </g>
                </g>
                <g id="Expressions" transform="translate(462.000000, 479.000000) scale(1 1)">
                    <g id="Expressions/Happy" stroke="none" stroke-width="1" fill="none" fill-rule="evenodd">
                        <g id="eye1" transform="translate(21.027098, 10.213671)">
                            <path d="M0.0487023333,7.96572872 C1.82485498,-0.0171869856 25.1977023,-2.81531309 35.4827023,3.36568691 C39.0387023,5.47868691 45.6427023,11.2837287 39.7957023,14.4437287 C38.2517023,15.1157287 36.7517023,14.4267287 35.4827023,13.6077287 C21.4647023,3.86572872 -1.18942441,13.5304877 0.0487023333,7.96572872 Z" id="Fill-1" fill="#090E2B"/>
                            <path d="M19.0113023,22.3973287 C13.7233023,23.8973287 9.19030233,28.1473287 8.76930233,31.6693287 C8.51430233,33.7973287 16.8643023,38.9063287 24.9173023,39.3033287 C35.5113023,39.8243287 40.8513023,34.0853287 40.8324531,32.2513287 C40.1193023,26.7013287 33.7283023,18.2233287 19.0113023,22.3973287 Z" id="Fill-6" fill="#FFF"/>
                            <path d="M35.3981023,25.5550287 C27.2551023,19.4010287 14.6431023,23.4110287 8.76910233,31.6690287 C8.43210233,32.0970287 8.52910233,31.0200287 8.76310233,30.5290287 C11.5971023,24.5820287 16.7101023,21.7750287 22.6381023,20.5510287 C26.2051023,19.8140287 29.5311023,19.7540287 33.0101023,21.3120287 C34.3551023,21.9130287 36.7311023,23.7450287 38.5671023,25.8170287 C39.9991023,27.4320287 41.2051023,30.2010287 39.5481023,29.2220287 C38.2511023,28.4550287 36.4781023,26.3720287 35.3981023,25.5550287 Z" id="Fill-8" fill="#090E2B"/>
                            <path d="M24.8135023,36.0623287 C29.3405023,36.0623287 33.0105023,32.7143287 33.0105023,28.5833287 C33.0105023,24.4533287 29.3405023,21.1043287 24.8135023,21.1043287 C20.2865023,21.1043287 16.6165023,24.4533287 16.6165023,28.5833287 C16.6165023,32.7143287 20.2865023,36.0623287 24.8135023,36.0623287 Z" id="Fill-10" fill="#090E2B"/>
                        </g>
                        <g id="eye2" transform="translate(81.203378, 15.000183)">
                            <path d="M23.2557812,1.861246 C26.6096324,3.34897691 31.0744206,8.28711729 27.357522,8.28711729 C23.6406234,8.28711729 15.5900245,7.23270759 10.1930245,9.45970759 C8.30802454,9.94170759 6.87752199,10.8641173 4.98452199,11.0891173 C0.67652199,11.9281173 -1.66408888,6.76839233 1.38185604,3.64904337 C4.82290212,0.125071736 16.4397812,-1.545754 23.2557812,1.861246 Z" id="Fill-4" fill="#090E2B"/>
                            <path d="M19.455322,34.2343173 C24.826322,32.9853173 28.843322,28.1153173 28.389322,24.4763173 C27.503322,19.6543173 18.218322,16.5753173 13.017322,19.2083173 C7.86632199,21.8153173 4.64332199,27.6403173 5.05932199,29.9403173 C5.66032199,31.5323173 13.966322,35.5113173 19.455322,34.2343173 Z" id="Fill-12" fill="#FFF"/>
                            <path d="M15.011222,31.6060173 C18.549222,31.6060173 21.417222,28.8520173 21.417222,25.4560173 C21.417222,22.0590173 19.396222,18.8490173 15.011222,19.3060173 C11.492222,19.6720173 8.60422199,22.0590173 8.60422199,25.4560173 C8.60422199,28.8520173 11.473222,31.6060173 15.011222,31.6060173 Z" id="Fill-14" fill="#090E2B"/>
                            <path d="M5.25072199,26.6376173 C7.27972199,19.0636173 16.440722,15.1686173 23.685722,18.7546173 C24.705722,19.2866173 26.361722,20.4806173 27.601722,21.9226173 C28.742722,23.2526173 28.593722,23.9496173 28.127722,23.8116173 C27.355722,23.5816173 25.722722,22.1166173 24.395722,21.4866173 C17.685722,18.3036173 10.704722,20.0896173 5.59372199,27.5586173 C5.34272199,27.9456173 5.10472199,27.0746173 5.25072199,26.6376173" id="Fill-22" fill="#090E2B"/>
                        </g>
                        <path d="M89.773817,88.8585998 C81.203378,89.8585998 88.1482904,99.3833823 83.7083884,100.648667 C72.3411441,103.888108 60,99.9572383 58.0067117,89.8585998 C56.8303329,83.8986871 60.3418642,84.6193542 63.1467832,84.8682179 C65.9517021,85.1170816 79.8038764,85.6292987 87.244688,85.6292987 C94.4593207,85.6292987 90.833428,88.7349642 89.773817,88.8585998 Z" id="Fill-18" fill="#090E2B"/>
                        <path d="M79.5163974,56.0474227 C79.9047316,56.0474227 82.4878873,60.4695558 83.4356699,62.0222568 C86.4544009,66.9676809 89.7813295,72.5049636 84.8702,75.6883 C82.4912,77.2313 75.0122,74.8407787 75.0122,73.0253 C75.0122,70.2632077 81.8382,75.1193 83.4442,72.3153 C84.3857451,70.8872578 80.8590997,63.6440183 79.5163974,59.348811 C78.7670658,56.9517537 79.1280631,56.0474227 79.5163974,56.0474227 Z" id="nose" fill="#090E2B"/>
                    </g>
                </g>
                <g id="Facial Accesories" transform="translate(459.000000, 529.000000) scale(1 1)" fill="#000">
                    <g id="Facial Accesories/None" stroke="none" stroke-width="1" fill="none" fill-rule="evenodd" fill-opacity="0"/>
                </g>
                <g id="Glass" transform="translate(462.000000, 484.000000) scale(1 1)" fill="#000">
                    <g id="Glass/None" stroke="none" stroke-width="1" fill="none" fill-rule="evenodd" fill-opacity="0"/>
                </g>
            </g>
        </g>
    </g>
</svg>
