<svg viewBox="0 120 3200 1920" xmlns="http://www.w3.org/2000/svg" overflow="visible">
    <defs>
        <linearGradient x1="50%" y1="0%" x2="50%" y2="100%" id="masterbackgroundcity-linearGradient-1">
            <stop stop-color="#A7B3FE" offset="0%"/>
            <stop stop-color="#FFF" stop-opacity="0" offset="100%"/>
        </linearGradient>
    </defs>
    <g id="Master/Background/City" stroke="none" stroke-width="1" fill="none" fill-rule="evenodd">
        <path d="M3200.00266,1395.08173 C3196.52214,1395.08173 3193.70787,1397.35681 3193.70787,1400.15814 L3193.70787,1402.66179 C3193.70787,1405.4897 3190.78446,1407.7701 3187.26949,1407.72757 C3177.85602,1407.62658 3172.11259,1407.55748 3172.11259,1407.55748 L3172.11259,1411.84718 L3163.64679,1411.84718 L3163.64679,1360.35482 C3163.64679,1357.55349 3160.82677,1355.28372 3157.34625,1355.28372 L3152.30927,1355.28372 C3148.8345,1355.28372 3146.00874,1353.00864 3146.00874,1350.21262 L3146.00874,1335.90299 C3146.00874,1331.88439 3141.97111,1328.63123 3136.98582,1328.63123 L3032.6393,1328.63123 C3027.65401,1328.63123 3023.61638,1331.88439 3023.61638,1335.90299 L3023.61638,1451.98007 C3023.61638,1455.98804 3019.57301,1459.24651 3014.58772,1459.24651 L2987.94972,1459.24651 C2982.96443,1459.24651 2978.92681,1462.49967 2978.92681,1466.51296 L2978.92681,1557.05382 C2978.92681,1561.06711 2974.88344,1564.32027 2969.89815,1564.32027 L2965.6997,1564.32027 C2960.71441,1564.32027 2956.67678,1561.06711 2956.67678,1557.05382 L2956.67678,1552.5515 C2956.67678,1548.53821 2952.63341,1545.27973 2947.64812,1545.27973 L2925.14539,1545.27973 C2921.67062,1545.27973 2918.8506,1543.01528 2918.8506,1540.20864 L2918.8506,1537.80598 C2918.8506,1535.00465 2916.02483,1532.72957 2912.55006,1532.72957 L2907.33504,1532.72957 C2903.85452,1532.72957 2901.0345,1530.4598 2901.0345,1527.65847 L2901.0345,1522.08239 C2901.0345,1518.06379 2896.99113,1514.81595 2892.00584,1514.81595 L2887.8074,1514.81595 C2882.8221,1514.81595 2878.77873,1518.06379 2878.77873,1522.08239 L2878.77873,1559.24917 C2878.77873,1562.0505 2875.96446,1564.32027 2872.48394,1564.32027 L2869.93386,1564.32027 C2866.45909,1564.32027 2866.51078,1562.0505 2866.51078,1559.24917 L2866.51078,1472.88638 C2866.51078,1472.49302 2866.47058,1472.09967 2866.39591,1471.71163 L2803.76388,1471.71163 C2803.68922,1472.09967 2803.64901,1472.49302 2803.64901,1472.88638 L2803.64901,1554.05581 C2803.64901,1557.39402 2800.82899,1561.04585 2796.81434,1561.85914 L2789.96818,1561.90698 L2789.96818,1179.8897 C2789.96818,1175.87641 2785.92481,1172.61794 2780.93952,1172.61794 L2635.2863,1172.61794 C2630.30101,1172.61794 2626.26338,1175.87641 2626.26338,1179.8897 L2626.26338,1333.68106 C2626.26338,1337.69435 2622.22001,1340.94751 2617.23472,1340.94751 L2611.8359,1340.94751 C2606.85061,1340.94751 2602.81299,1344.20066 2602.81299,1348.21395 L2602.81299,1452.8093 L2595.56479,1452.8093 L2591.43527,1437.05382 C2589.47676,1429.5907 2576.38175,1429.28771 2573.89485,1436.65515 L2570.25926,1447.44585 C2569.19099,1450.61395 2565.62432,1452.8093 2561.54649,1452.8093 L2536.16056,1452.8093 C2531.17527,1452.8093 2527.1319,1449.56146 2527.1319,1445.54286 L2527.1319,1270.76013 C2527.1319,1266.74684 2523.09427,1263.49369 2518.10898,1263.49369 L2504.99674,1263.49369 C2500.01145,1263.49369 2495.96808,1266.74684 2495.96808,1270.76013 L2495.96808,1364.14485 C2495.96808,1368.15814 2491.93046,1371.4113 2486.94516,1371.4113 L2415.96794,1371.4113 C2410.98265,1371.4113 2406.94502,1368.15814 2406.94502,1364.14485 L2406.94502,1362.55017 C2406.94502,1358.53156 2402.90165,1355.28372 2397.91636,1355.28372 L2373.70783,1355.28372 C2368.7168,1355.28372 2364.67917,1358.53156 2364.67917,1362.55017 L2364.67917,1371.31561 C2364.67917,1375.3289 2360.64154,1378.58206 2355.65051,1378.58206 L2342.52678,1378.58206 C2337.54149,1378.58206 2333.50387,1375.3289 2333.50387,1371.31561 L2333.50387,1367.91894 C2333.50387,1363.90565 2329.4605,1360.65249 2324.47521,1360.65249 L2309.16324,1360.65249 C2304.17795,1360.65249 2300.13458,1363.90565 2300.13458,1367.91894 L2300.13458,1446.88771 C2300.13458,1450.81595 2296.25202,1454.03189 2291.37011,1454.15415 C2283.89792,1454.3402 2276.59228,1454.43588 2270.9063,1454.3402 C2265.74296,1454.25515 2261.67087,1457.55083 2261.78574,1461.71296 C2262.10737,1473.24784 2261.01038,1493.11229 2260.34988,1503.55216 C2260.10866,1507.4113 2256.1457,1510.41462 2251.33845,1510.41462 L2244.25681,1510.41462 C2239.27152,1510.41462 2235.22815,1513.66246 2235.22815,1517.68106 L2235.22815,1563.96412 C2235.22815,1567.97741 2231.19052,1571.23056 2226.20523,1571.23056 L2224.24672,1571.23056 C2219.26143,1571.23056 2215.21806,1567.97741 2215.21806,1563.96412 L2215.21806,1476.41595 C2215.21806,1475.22525 2214.85623,1474.0505 2214.16127,1472.99801 L2201.07775,1453.23455 C2197.53981,1447.89236 2187.91957,1448.16877 2184.86407,1453.70233 L2170.29875,1480.08372 C2169.78758,1481.01395 2169.51764,1482.0186 2169.51764,1483.03389 L2169.51764,1545.45515 C2169.51764,1548.25648 2166.70337,1550.52625 2163.22285,1550.52625 L2158.88657,1550.52625 C2155.40605,1550.52625 2152.58603,1548.25648 2152.58603,1545.45515 L2152.58603,1303.89236 C2152.58603,1299.87907 2148.54266,1296.62591 2143.56311,1296.62591 L2043.98364,1296.62591 C2039.00409,1296.62591 2034.96072,1299.87907 2034.96072,1303.89236 L2034.96072,1332.28837 C2034.96072,1335.08439 2032.1407,1337.35947 2028.66019,1337.35947 L2028.22943,1337.35947 C2024.74892,1337.35947 2021.92889,1339.62924 2021.92889,1342.43056 L2021.92889,1417.38073 C2021.92889,1421.39402 2017.89127,1424.64718 2012.90598,1424.64718 L1988.66873,1424.64718 C1983.68344,1424.64718 1979.64007,1421.39402 1979.64007,1417.38073 L1979.64007,1308.77209 C1979.64007,1304.7588 1975.60244,1301.50565 1970.61141,1301.50565 L1913.65388,1301.50565 C1908.66859,1301.50565 1904.63096,1298.25249 1904.63096,1294.2392 L1904.63096,1209.77409 C1904.63096,1205.7608 1900.59333,1202.50764 1895.6023,1202.50764 L1818.27859,1202.50764 C1813.28755,1202.50764 1809.24993,1205.7608 1809.24993,1209.77409 L1809.24993,1244.06512 C1809.24993,1248.07841 1805.2123,1251.33156 1800.22127,1251.33156 L1699.57926,1251.33156 L1699.57926,1156.11827 C1699.57926,1153.32226 1696.75924,1151.04718 1693.27872,1151.04718 L1688.39681,1151.04718 C1684.9163,1151.04718 1682.09628,1148.77741 1682.09628,1145.97608 L1682.09628,1056.26445 C1682.09628,1053.46312 1679.27626,1051.19336 1675.79574,1051.19336 L1670.91383,1051.19336 C1667.43906,1051.19336 1664.61904,1048.92359 1664.61904,1046.12226 L1475.46514,1042.81063 C1475.46514,1045.39402 1473.0529,1047.56811 1469.85956,1047.85515 L1466.75236,1048.13156 C1463.56476,1048.4186 1461.15253,1050.58738 1461.15253,1053.17608 L1461.15253,1149.76611 L1451.6127,1149.76611 L1451.6127,1428.35216 C1451.6127,1430.56346 1450.36638,1432.65249 1448.21834,1434.03455 L1440.30964,1439.12159 C1438.1616,1440.49302 1436.91528,1442.58738 1436.91528,1444.79867 L1436.91528,1451.62392 C1436.04802,1451.60797 1435.44496,1451.59734 1435.44496,1451.59734 L1435.44496,1473.48173 C1435.44496,1477.49502 1431.40159,1480.75349 1426.4163,1480.75349 L1423.80305,1480.75349 C1418.8235,1480.75349 1414.78013,1477.49502 1414.78013,1473.48173 L1414.78013,1201.23721 C1414.78013,1197.22392 1410.73676,1193.97076 1405.75721,1193.97076 L1326.39459,1193.97076 C1321.40929,1193.97076 1317.36592,1197.22392 1317.36592,1201.23721 L1317.36592,1502.27641 L1270.10904,1467.5814 C1268.41473,1466.21528 1267.46706,1464.37076 1267.46706,1462.4412 L1267.46706,1247.74352 L1267.46706,1222.7495 C1267.46706,1218.7309 1263.42369,1215.47774 1258.4384,1215.47774 L1247.5661,1215.47774 C1242.58081,1215.47774 1238.54318,1212.22458 1238.54318,1208.2113 L1238.54318,1201.23721 C1238.54318,1197.22392 1234.49981,1193.97076 1229.51452,1193.97076 L1171.40831,1193.97076 C1166.42302,1193.97076 1162.37965,1190.71761 1162.37965,1186.699 L1162.37965,1056.42924 C1162.37965,1052.41063 1158.34202,1049.15748 1153.35673,1049.15748 L1103.86565,1049.15748 C1098.88036,1049.15748 1094.84273,1052.41063 1094.84273,1056.42924 L1094.84273,1340.80399 C1094.84273,1344.81728 1090.79936,1348.07575 1085.81407,1348.07575 L1040.78563,1348.07575 C1035.80608,1348.07575 1031.76271,1344.81728 1031.76271,1340.80399 L1031.76271,1102.79734 C1031.76271,1098.78405 1027.72509,1095.5309 1022.73405,1095.5309 L958.872926,1095.5309 C953.887635,1095.5309 949.844265,1098.78405 949.844265,1102.79734 L949.844265,1473.48173 C949.844265,1477.49502 945.806638,1480.75349 940.821347,1480.75349 L938.213833,1480.75349 C933.228541,1480.75349 929.190915,1477.49502 929.190915,1473.48173 L929.190915,1465.11495 C929.190915,1460.95814 924.889091,1457.6412 919.731496,1457.81661 L902.983674,1458.38538 C897.82608,1458.55548 893.524256,1455.23854 893.524256,1451.08173 L893.524256,1426.2897 L893.58169,1426.2897 L893.58169,1412.7402 C893.58169,1408.72691 889.544063,1405.47375 884.558772,1405.47375 L871.440793,1405.47375 C866.455502,1405.47375 862.412132,1402.2206 862.412132,1398.20731 L862.412132,1387.5495 L852.430062,1387.5495 L852.430062,1224.0412 C852.430062,1220.02791 848.386692,1216.77475 843.4014,1216.77475 L748.537277,1216.77475 C743.551986,1216.77475 739.508616,1220.02791 739.508616,1224.0412 L739.508616,1365.93621 C739.508616,1369.9495 735.470989,1373.20797 730.485698,1373.20797 L726.39638,1373.20797 C721.411089,1373.20797 717.373462,1369.9495 717.373462,1365.93621 L717.373462,1224.0412 C717.373462,1220.02791 713.330092,1216.77475 708.350544,1216.77475 L625.065162,1216.77475 C620.079871,1216.77475 616.036501,1220.02791 616.036501,1224.0412 L616.036501,1339.04983 C616.036501,1343.06312 611.998874,1346.32159 607.013583,1346.32159 L593.252341,1346.32159 C588.267049,1346.32159 584.223679,1349.57475 584.223679,1353.58804 L584.223679,1399.47243 L579.324539,1397.16545 C575.55111,1395.38472 570.743865,1396.03854 567.90087,1398.71229 L560.681387,1405.51628 C559.285735,1406.83455 558.52186,1408.50897 558.52186,1410.24186 L558.52186,1424.42924 C558.52186,1426.84784 556.402536,1428.92625 553.461904,1429.40465 L549.309409,1430.07442 C546.363032,1430.55282 544.249453,1432.63654 544.249453,1435.04983 L544.249453,1538.48638 C544.249453,1542.49967 540.211826,1545.75282 535.226535,1545.75282 L530.844303,1545.75282 C525.859011,1545.75282 521.821385,1542.49967 521.821385,1538.48638 L521.821385,1352.80664 C521.821385,1350.88239 520.867976,1349.03256 519.17941,1347.67176 L514.825895,1344.16346 C513.131585,1342.80266 512.18392,1340.95282 512.18392,1339.02857 L512.18392,1305.05116 C512.18392,1303.12691 511.230512,1301.27708 509.536202,1299.91628 L495.464815,1288.5887 C493.770505,1287.22259 492.817097,1285.37276 492.817097,1283.4485 L492.817097,1197.95216 C492.817097,1195.97475 491.817741,1194.08239 490.048767,1192.71096 L468.430521,1175.97209 C466.661547,1174.60066 465.656448,1172.70831 465.656448,1170.73621 L465.656448,1145.23721 L461.486722,1141.02724 L461.486722,1119.81262 C461.486722,1118.33488 454.169601,1111.57874 454.169601,1110.09568 L454.169601,1086.32425 C454.169601,1083.90033 452.050278,1081.81661 449.103902,1081.34884 C445.520006,1079.6124 443.728058,1077.93798 443.728058,1076.32558 L443.728058,1050.20997 L439.558332,1047.67973 L439.558332,1028.34153 L433.292257,1024.12625 L433.292257,1008.09967 C433.292257,1007.03123 432.999343,1005.97342 432.436487,1005.00598 L424.947063,886 L420.771595,886 L415.539336,886 L415.539336,1015.78605 C415.539336,1016.84917 415.246421,1017.90166 414.689309,1018.86379 L401.249699,1042.02392 C400.692587,1042.98605 400.399672,1044.03322 400.399672,1045.09635 L400.399672,1062.75482 C400.399672,1064.68439 399.446264,1066.5289 397.757697,1067.89502 C388.732865,1075.88261 384.220448,1080.51783 384.220448,1081.80066 L384.220448,1107.39003 L373.50322,1107.39003 L373.50322,1136.19003 C373.50322,1137.52957 372.842727,1138.82126 371.665325,1139.77276 L367.777027,1142.91429 C366.599626,1143.86047 365.939132,1145.14684 365.939132,1146.49169 L365.939132,1169.21063 L360.195709,1173.8299 L360.195709,1199.89236 L354.027272,1199.89236 L354.027272,1284.18738 C354.027272,1286.9887 351.207251,1289.25847 347.726737,1289.25847 L344.843538,1289.25847 C341.363024,1289.25847 338.543003,1291.52824 338.543003,1294.32957 L338.543003,1304.85449 C338.543003,1308.86777 334.499633,1312.12625 329.514341,1312.12625 C324.52905,1312.12625 320.491423,1315.37409 320.491423,1319.39269 L320.491423,1522.55017 C320.491423,1526.56877 316.448053,1529.81661 311.468505,1529.81661 L307.626155,1529.81661 C302.63512,1529.81661 298.597493,1526.56877 298.597493,1522.55017 L298.597493,1514.18339 C298.597493,1511.38206 295.777473,1509.11229 292.302701,1509.11229 L292.296958,1509.11229 C288.816443,1509.11229 285.996423,1506.84252 285.996423,1504.0412 L285.996423,1325.43123 C285.996423,1321.41794 281.953053,1318.16478 276.973505,1318.16478 L90.6396214,1318.16478 C85.65433,1318.16478 81.6167033,1321.41794 81.6167033,1325.43123 L81.6167033,1553.14153 C81.6167033,1557.04319 77.7800966,1560.28571 72.9326473,1560.40797 C66.9135396,1560.55681 46.8575053,1560.50897 42.7509577,1560.10498 C42.2053324,1560.05714 41.7056546,1560.16877 41.1830031,1560.21661 L41.1830031,1488.01993 C41.1830031,1484.00664 37.1396331,1480.75349 32.160085,1480.75349 L9.02557586,1480.75349 C4.04028441,1480.75349 0.00265780731,1484.00664 0.00265780731,1488.01993 L0.00265780731,2000.79336 C0.00265780731,2004.80664 4.04602783,2008.0598 9.03131928,2008.0598 L3200.00266,2001.42382 L3200.00266,1395.08173 Z" id="City" fill="url(#masterbackgroundcity-linearGradient-1)" opacity=".5"/>
        <g id="Floor" transform="translate(510.000000, 2005.500000)" fill="#090E2B" fill-rule="nonzero">
            <path d="M833.702805,-3 C835.635801,-3 837.202805,-1.43299662 837.202805,0.5 C837.202805,2.3685634 835.738527,3.89512645 833.89484,3.99482114 L833.702805,4 L0,4 C-1.93299662,4 -3.5,2.43299662 -3.5,0.5 C-3.5,-1.3685634 -2.0357224,-2.89512645 -0.192035203,-2.99482114 L0,-3 L833.702805,-3 Z" id="Path-4"/>
            <path d="M2180.22827,-0.5 C2182.16127,-0.5 2183.72827,1.06700338 2183.72827,3 C2183.72827,4.8685634 2182.26399,6.39512645 2180.42031,6.49482114 L2180.22827,6.5 L1137.29077,6.5 C1135.35777,6.5 1133.79077,4.93299662 1133.79077,3 C1133.79077,1.1314366 1135.25505,-0.395126449 1137.09873,-0.494821137 L1137.29077,-0.5 L2180.22827,-0.5 Z" id="Path-4-Copy-3"/>
        </g>
        <g id="Flying Objects" opacity=".5" transform="translate(132.000000, -107.000000) scale(1 1)">
            <g id="Flying Objects/Cloud 1" stroke="none" stroke-width="1" fill="none" fill-rule="evenodd">
                <path d="M479.95575,473.895048 C489.613069,459.137123 499.099888,436.733126 487.997876,423.547909 C481.436886,415.755283 470.330969,416.37302 462.370839,421.934228 C454.409408,427.495437 448.858402,436.870226 443.55859,445.96136 C452.064059,424.955151 460.742631,403.137375 461.346539,379.753193 C461.950447,356.369012 452.155166,330.873179 433.86613,323.327963 C414.905507,315.50382 394.716245,328.774134 378.352165,342.761464 C343.415317,372.620853 311.811676,408.189581 284.665759,448.195929 C286.38117,435.63948 288.09658,422.759979 286.097437,410.263412 C284.098294,397.765269 277.573747,385.527143 267.572825,381.604829 C257.656503,377.714031 246.935838,382.62441 237.627328,388.303808 C205.588977,407.842892 177.856072,437.617184 158,473.792617 C160.945352,473.792617 156.578734,478.669903 159.524086,478.669903 L479.95575,473.895048 Z" id="cloud" fill="#F0F1FF" transform="translate(325.500000, 399.834951) scale(-1, 1) translate(-325.500000, -399.834951)"/>
            </g>
        </g>
        <g id="Flying Objects" opacity=".5" transform="translate(2500.000000, -107.000000) scale(1 1)">
            <g id="Flying Objects/Cloud 1" stroke="none" stroke-width="1" fill="none" fill-rule="evenodd">
                <path d="M479.95575,473.895048 C489.613069,459.137123 499.099888,436.733126 487.997876,423.547909 C481.436886,415.755283 470.330969,416.37302 462.370839,421.934228 C454.409408,427.495437 448.858402,436.870226 443.55859,445.96136 C452.064059,424.955151 460.742631,403.137375 461.346539,379.753193 C461.950447,356.369012 452.155166,330.873179 433.86613,323.327963 C414.905507,315.50382 394.716245,328.774134 378.352165,342.761464 C343.415317,372.620853 311.811676,408.189581 284.665759,448.195929 C286.38117,435.63948 288.09658,422.759979 286.097437,410.263412 C284.098294,397.765269 277.573747,385.527143 267.572825,381.604829 C257.656503,377.714031 246.935838,382.62441 237.627328,388.303808 C205.588977,407.842892 177.856072,437.617184 158,473.792617 C160.945352,473.792617 156.578734,478.669903 159.524086,478.669903 L479.95575,473.895048 Z" id="cloud" fill="#F0F1FF" transform="translate(325.500000, 399.834951) scale(-1, 1) translate(-325.500000, -399.834951)"/>
            </g>
        </g>
        <g id="Flying Objects" opacity=".5" transform="translate(1599.000000, 214.000000) scale(-1, 1) translate(-1599.000000, -214.000000) translate(1249.000000, -186.000000) scale(1 1)">
            <g id="Flying Objects/Cloud 1" stroke="none" stroke-width="1" fill="none" fill-rule="evenodd">
                <path d="M479.95575,473.895048 C489.613069,459.137123 499.099888,436.733126 487.997876,423.547909 C481.436886,415.755283 470.330969,416.37302 462.370839,421.934228 C454.409408,427.495437 448.858402,436.870226 443.55859,445.96136 C452.064059,424.955151 460.742631,403.137375 461.346539,379.753193 C461.950447,356.369012 452.155166,330.873179 433.86613,323.327963 C414.905507,315.50382 394.716245,328.774134 378.352165,342.761464 C343.415317,372.620853 311.811676,408.189581 284.665759,448.195929 C286.38117,435.63948 288.09658,422.759979 286.097437,410.263412 C284.098294,397.765269 277.573747,385.527143 267.572825,381.604829 C257.656503,377.714031 246.935838,382.62441 237.627328,388.303808 C205.588977,407.842892 177.856072,437.617184 158,473.792617 C160.945352,473.792617 156.578734,478.669903 159.524086,478.669903 L479.95575,473.895048 Z" id="cloud" fill="#F0F1FF" transform="translate(325.500000, 399.834951) scale(-1, 1) translate(-325.500000, -399.834951)"/>
            </g>
        </g>
    </g>
</svg>
